<?xml version="1.0" encoding="UTF-8" standalone="no"?>
<!-- Created with Inkscape (http://www.inkscape.org/) -->

<svg
   xmlns:dc="http://purl.org/dc/elements/1.1/"
   xmlns:cc="http://creativecommons.org/ns#"
   xmlns:rdf="http://www.w3.org/1999/02/22-rdf-syntax-ns#"
   xmlns:svg="http://www.w3.org/2000/svg"
   xmlns="http://www.w3.org/2000/svg"
   xmlns:sodipodi="http://sodipodi.sourceforge.net/DTD/sodipodi-0.dtd"
   xmlns:inkscape="http://www.inkscape.org/namespaces/inkscape"
   version="1.1"
   id="svg2"
   xml:space="preserve"
   width="399.82666"
   height="67.919998"
   viewBox="0 0 399.82666 67.919998"
   sodipodi:docname="logo recreate.eps"
   inkscape:version="0.92.4 5da689c313, 2019-01-14"><metadata
     id="metadata8"><rdf:RDF><cc:Work
         rdf:about=""><dc:format>image/svg+xml</dc:format><dc:type
           rdf:resource="http://purl.org/dc/dcmitype/StillImage" /><dc:title></dc:title></cc:Work></rdf:RDF></metadata><defs
     id="defs6"><clipPath
       clipPathUnits="userSpaceOnUse"
       id="clipPath44"><path
         d="M 0,0 H 2999 V 509 H 0 Z"
         id="path42"
         inkscape:connector-curvature="0" /></clipPath><clipPath
       clipPathUnits="userSpaceOnUse"
       id="clipPath50"><path
         d="m 2160.42,0 h -159.38 v 509.375 h 159.38 z"
         id="path48"
         inkscape:connector-curvature="0" /></clipPath><clipPath
       clipPathUnits="userSpaceOnUse"
       id="clipPath94"><path
         d="M 0,0 H 2999 V 509 H 0 Z"
         id="path92"
         inkscape:connector-curvature="0" /></clipPath><clipPath
       clipPathUnits="userSpaceOnUse"
       id="clipPath100"><path
         d="M 2370,0 H 2210.62 V 509.375 H 2370 Z"
         id="path98"
         inkscape:connector-curvature="0" /></clipPath><clipPath
       clipPathUnits="userSpaceOnUse"
       id="clipPath144"><path
         d="M 0,0 H 2999 V 509 H 0 Z"
         id="path142"
         inkscape:connector-curvature="0" /></clipPath><clipPath
       clipPathUnits="userSpaceOnUse"
       id="clipPath150"><path
         d="m 2789.17,0 h -159.38 v 509.375 h 159.38 z"
         id="path148"
         inkscape:connector-curvature="0" /></clipPath><clipPath
       clipPathUnits="userSpaceOnUse"
       id="clipPath194"><path
         d="M 0,0 H 2999 V 509 H 0 Z"
         id="path192"
         inkscape:connector-curvature="0" /></clipPath><clipPath
       clipPathUnits="userSpaceOnUse"
       id="clipPath200"><path
         d="M 2579.58,0 H 2420.2 v 509.375 h 159.38 z"
         id="path198"
         inkscape:connector-curvature="0" /></clipPath><clipPath
       clipPathUnits="userSpaceOnUse"
       id="clipPath256"><path
         d="M 0,0 H 2999 V 509 H 0 Z"
         id="path254"
         inkscape:connector-curvature="0" /></clipPath><clipPath
       clipPathUnits="userSpaceOnUse"
       id="clipPath262"><path
         d="m 2998.75,0 h -159.38 v 509.375 h 159.38 z"
         id="path260"
         inkscape:connector-curvature="0" /></clipPath></defs><sodipodi:namedview
     pagecolor="#ffffff"
     bordercolor="#666666"
     borderopacity="1"
     objecttolerance="10"
     gridtolerance="10"
     guidetolerance="10"
     inkscape:pageopacity="0"
     inkscape:pageshadow="2"
     inkscape:window-width="1920"
     inkscape:window-height="1080"
     id="namedview4"
     showgrid="false"
     inkscape:zoom="0.93040319"
     inkscape:cx="199.91333"
     inkscape:cy="33.959999"
     inkscape:window-x="0"
     inkscape:window-y="840"
     inkscape:window-maximized="0"
     inkscape:current-layer="g12" /><g
     id="g10"
     inkscape:groupmode="layer"
     inkscape:label="ink_ext_XXXXXX"
     transform="matrix(1.3333333,0,0,-1.3333333,0,67.92)"><g
       id="g12"
       transform="scale(0.1)"><path
         d="m 5,82.9219 c -2.76562,0 -5,2.2344 -5,5 V 387.914 c 0,2.035 1.23438,3.867 3.12109,4.637 1.88672,0.746 4.04297,0.308 5.46094,-1.149 L 237.746,155.566 c 1.93,-1.98 1.883,-5.144 -0.094,-7.07 -1.984,-1.933 -5.152,-1.887 -7.074,0.098 L 10,375.598 V 87.9219 c 0,-2.7656 -2.23828,-5 -5,-5"
         style="fill:#354ca6;fill-opacity:1;fill-rule:nonzero;stroke:none"
         id="path14"
         inkscape:connector-curvature="0" /><path
         d="M 75,85.4219 H 39.1641 c -2.7618,0 -5,2.2344 -5,5 V 302.914 c 0,2.024 1.2148,3.848 3.0859,4.621 1.8867,0.781 4.0234,0.348 5.4492,-1.086 L 250.398,98.75 h 11.266 v 309.164 h -57.5 V 284.586 c 0,-2.766 -2.234,-5 -5,-5 -2.762,0 -5,2.234 -5,5 v 128.328 c 0,2.766 2.238,5 5,5 h 67.5 c 2.766,0 5,-2.234 5,-5 V 93.75 c 0,-2.7656 -2.234,-5 -5,-5 h -18.336 c -1.328,0 -2.598,0.5273 -3.535,1.4648 L 44.1641,290.844 V 95.4219 H 70 V 228.75 c 0,2.766 2.2344,5 5,5 2.7617,0 5,-2.234 5,-5 V 90.4219 c 0,-2.7656 -2.2383,-5 -5,-5"
         style="fill:#354ca6;fill-opacity:1;fill-rule:nonzero;stroke:none"
         id="path16"
         inkscape:connector-curvature="0" /><path
         d="m 234.164,196.25 c -1.301,0 -2.574,0.508 -3.531,1.453 L 16.4688,411.047 c -1.9532,1.945 -1.961,5.109 -0.0079,7.07 1.9454,1.942 5.1094,1.965 7.0704,0.008 L 229.164,213.289 v 167.125 c 0,2.766 2.238,5 5,5 2.766,0 5,-2.234 5,-5 V 201.25 c 0,-2.02 -1.215,-3.84 -3.082,-4.617 -0.617,-0.254 -1.273,-0.383 -1.918,-0.383"
         style="fill:#354ca6;fill-opacity:1;fill-rule:nonzero;stroke:none"
         id="path18"
         inkscape:connector-curvature="0" /><path
         d="m 398.734,90 c -0.289,0 -0.57,0 -0.859,0 -52.715,0.4375 -82.117,39.121 -83.344,40.762 -1.398,1.875 -1.308,4.465 0.207,6.242 l 35.317,41.25 c 1.582,1.836 4.23,2.305 6.336,1.055 21.351,-12.571 37.562,-16.411 46.867,-11.067 8.461,4.832 12.57,17.578 12.57,38.946 V 413.75 c 0,2.766 2.238,5 5,5 h 33.336 c 2.766,0 5,-2.234 5,-5 v -212.5 c 0,-31.309 -8.926,-53.312 -26.523,-65.383 -29.985,-20.586 -73.442,-4.148 -75.278,-3.457 -2.574,0.996 -3.851,3.891 -2.863,6.469 0.988,2.566 3.879,3.855 6.461,2.867 0.406,-0.152 40.449,-15.215 66.051,2.387 14.703,10.105 22.152,29.312 22.152,57.117 v 207.5 H 425.828 V 207.188 c 0,-16.122 -1.824,-38.602 -17.609,-47.625 -12.336,-7.075 -29.797,-4.125 -53.266,9.042 l -29.855,-34.882 c 7.843,-8.735 33.48,-33.403 72.855,-33.723 21.817,0.012 40.043,6.992 53.902,20.742 C 470.27,139.004 480,168.137 480,205 v 211.25 c 0,2.766 2.234,5 5,5 2.762,0 5,-2.234 5,-5 V 205 C 490,165.41 479.242,133.816 458.895,113.645 443.289,98.1641 422.5,90 398.734,90"
         style="fill:#354ca6;fill-opacity:1;fill-rule:nonzero;stroke:none"
         id="path20"
         inkscape:connector-curvature="0" /><path
         d="m 588.539,92.5 h -63.75 c -1.461,0 -2.848,0.6367 -3.801,1.7461 -0.945,1.1055 -1.367,2.5781 -1.14,4.0273 l 45.625,293.7426 c 0.332,2.132 1.992,3.812 4.121,4.168 2.14,0.355 4.242,-0.704 5.246,-2.606 l 142.504,-271.058 43.668,81.101 c 1.304,2.434 4.343,3.32 6.769,2.031 2.434,-1.304 3.348,-4.343 2.035,-6.773 l -48.125,-89.375 c -0.875,-1.633 -2.644,-2.402 -4.425,-2.629 -1.852,0.012 -3.539,1.035 -4.403,2.676 L 573.031,375.527 530.625,102.5 h 53.668 l 15.559,95.188 c 0.449,2.722 3,4.656 5.742,4.121 2.726,-0.442 4.578,-3.02 4.133,-5.743 L 593.477,96.6875 C 593.078,94.2773 590.988,92.5 588.539,92.5"
         style="fill:#354ca6;fill-opacity:1;fill-rule:nonzero;stroke:none"
         id="path22"
         inkscape:connector-curvature="0" /><path
         d="m 692.918,85.625 c -1.785,0 -3.516,0.957 -4.414,2.6484 L 589.254,273.93 564.727,121.086 c -0.442,-2.727 -3.039,-4.531 -5.731,-4.152 -2.726,0.437 -4.582,3.007 -4.144,5.734 l 26.875,167.5 c 0.343,2.117 1.992,3.781 4.113,4.141 2.129,0.339 4.223,-0.688 5.234,-2.575 L 697.324,92.9805 c 1.305,-2.4336 0.387,-5.461 -2.051,-6.7696 -0.753,-0.3984 -1.558,-0.5859 -2.355,-0.5859"
         style="fill:#354ca6;fill-opacity:1;fill-rule:nonzero;stroke:none"
         id="path24"
         inkscape:connector-curvature="0" /><path
         d="m 811.66,88.75 c -2.422,0 -4.551,1.7695 -4.937,4.2305 L 777.711,279.848 722.91,181.316 c -0.89,-1.589 -2.508,-3.015 -4.398,-2.566 -1.828,0.012 -3.504,1.016 -4.371,2.629 l -125,231.242 c -1.317,2.434 -0.407,5.465 2.019,6.777 2.438,1.301 5.469,0.407 6.778,-2.019 l 120.664,-223.231 57.441,103.286 c 1.043,1.859 3.133,2.882 5.25,2.488 2.105,-0.375 3.734,-2.047 4.062,-4.156 l 31.25,-201.2426 c 0.426,-2.7382 -1.445,-5.2929 -4.175,-5.7148 -0.258,-0.0391 -0.516,-0.0586 -0.77,-0.0586"
         style="fill:#354ca6;fill-opacity:1;fill-rule:nonzero;stroke:none"
         id="path26"
         inkscape:connector-curvature="0" /><path
         d="m 874.164,90 h -31.875 c -2.496,0 -4.605,1.8359 -4.949,4.3086 L 801.09,353.059 c -0.387,2.734 1.519,5.261 4.258,5.64 2.695,0.406 5.254,-1.515 5.64,-4.258 L 846.641,100 h 21.714 L 821.738,408.75 H 810.27 L 722.934,247.617 c -1.313,-2.429 -4.356,-3.332 -6.778,-2.012 -2.426,1.321 -3.332,4.344 -2.011,6.778 l 88.75,163.75 c 0.875,1.613 2.558,2.617 4.394,2.617 h 18.75 c 2.477,0 4.574,-1.805 4.945,-4.254 L 879.109,95.7422 c 0.215,-1.4336 -0.203,-2.8984 -1.156,-4.0039 C 877.008,90.6367 875.617,90 874.164,90"
         style="fill:#354ca6;fill-opacity:1;fill-rule:nonzero;stroke:none"
         id="path28"
         inkscape:connector-curvature="0" /><path
         d="m 1082.6,88.418 c -3.68,0 -7.43,0.1172 -11.23,0.3437 C 964.516,95.1172 949.789,161.602 949.789,232.5 v 180 c 0,2.766 2.238,5 5,5 h 60.621 c 2.77,0 5,-2.234 5,-5 V 215 c 0,-32.805 19.43,-48.75 59.38,-48.75 39.95,0 59.37,17.988 59.37,55 v 191.875 c 0,2.766 2.24,5 5,5 h 32.5 c 2.77,0 5,-2.234 5,-5 V 213.75 c 0,-3.484 -1.01,-85.437 -89.08,-90.613 -37.56,-2.199 -70.34,8.054 -92.43,28.875 -14.314,13.496 -22.861,30.5 -22.861,45.488 v 188.125 c 0,2.766 2.238,5 5,5 2.766,0 5,-2.234 5,-5 V 197.5 c 0,-12.102 7.559,-26.746 19.721,-38.215 11.62,-10.957 38.13,-28.972 84.99,-26.172 78.76,4.641 79.66,77.532 79.66,80.637 v 194.375 h -22.5 V 221.25 c 0,-42.52 -23.99,-65 -69.37,-65 -57.34,0 -69.38,31.953 -69.38,58.75 v 192.5 h -50.621 v -175 c 0,-61.484 8.668,-127.598 112.171,-133.7617 39.34,-2.3125 71.62,8.1567 96.07,31.1957 25.68,24.207 37.38,58.472 37.38,80.066 v 203.125 c 0,2.766 2.24,5 5,5 2.77,0 5,-2.234 5,-5 V 210 c 0,-24.473 -12.53,-60.969 -40.52,-87.344 -24.14,-22.7458 -55.14,-34.238 -92.29,-34.238"
         style="fill:#354ca6;fill-opacity:1;fill-rule:nonzero;stroke:none"
         id="path30"
         inkscape:connector-curvature="0" /><path
         d="m 1361.66,116.875 c -2.76,0 -5,2.234 -5,5 V 351.25 c 0,2.766 2.24,5 5,5 h 108.76 v 52.5 h -210.63 v -20 h 186.25 c 2.77,0 5,-2.234 5,-5 0,-2.766 -2.23,-5 -5,-5 h -191.25 c -2.76,0 -5,2.234 -5,5 v 30 c 0,2.766 2.24,5 5,5 h 220.63 c 2.76,0 5,-2.234 5,-5 v -62.5 c 0,-2.766 -2.24,-5 -5,-5 H 1366.66 V 121.875 c 0,-2.766 -2.23,-5 -5,-5"
         style="fill:#354ca6;fill-opacity:1;fill-rule:nonzero;stroke:none"
         id="path32"
         inkscape:connector-curvature="0" /><path
         d="m 1396.04,89.375 h -66.88 c -2.76,0 -5,2.2344 -5,5 v 248.75 h -74.37 c -2.76,0 -5,2.234 -5,5 0,2.766 2.24,5 5,5 h 79.37 c 2.77,0 5,-2.234 5,-5 V 99.375 h 56.88 v 222.5 c 0,2.766 2.24,5 5,5 2.76,0 5,-2.234 5,-5 v -227.5 c 0,-2.7656 -2.24,-5 -5,-5"
         style="fill:#354ca6;fill-opacity:1;fill-rule:nonzero;stroke:none"
         id="path34"
         inkscape:connector-curvature="0" /><path
         d="m 2160.42,0 h -159.38 v 254.375 h 159.38 V 0"
         style="fill:#354ca6;fill-opacity:1;fill-rule:nonzero;stroke:none"
         id="path36"
         inkscape:connector-curvature="0" /><g
         id="g38"><g
           id="g40"
           clip-path="url(#clipPath44)"><g
             id="g46"
             clip-path="url(#clipPath50)"><path
               d="m 1783.85,392.055 -1.86,4.64 c 15.28,6.114 438.54,249.266 442.8,251.723 l 2.5,-4.336 C 2209.82,634.047 1799.45,398.297 1783.85,392.055"
               style="fill:#354ca6;fill-opacity:1;fill-rule:nonzero;stroke:none"
               id="path52"
               inkscape:connector-curvature="0" /><path
               d="m 1795.93,376.641 -1.86,4.636 c 15.28,6.118 438.54,249.27 442.8,251.727 l 2.5,-4.336 C 2221.9,618.633 1811.53,382.883 1795.93,376.641"
               style="fill:#354ca6;fill-opacity:1;fill-rule:nonzero;stroke:none"
               id="path54"
               inkscape:connector-curvature="0" /><path
               d="m 1808.02,361.223 -1.86,4.636 c 15.28,6.114 438.54,249.27 442.8,251.723 l 2.5,-4.336 C 2233.99,603.215 1823.62,367.461 1808.02,361.223"
               style="fill:#354ca6;fill-opacity:1;fill-rule:nonzero;stroke:none"
               id="path56"
               inkscape:connector-curvature="0" /><path
               d="m 1820.1,345.805 -1.86,4.64 c 15.28,6.114 438.54,249.266 442.8,251.723 l 2.5,-4.336 C 2246.07,587.797 1835.7,352.047 1820.1,345.805"
               style="fill:#354ca6;fill-opacity:1;fill-rule:nonzero;stroke:none"
               id="path58"
               inkscape:connector-curvature="0" /><path
               d="m 1832.18,330.391 -1.86,4.636 c 15.28,6.118 438.54,249.27 442.8,251.727 l 2.5,-4.336 C 2258.15,572.383 1847.78,336.633 1832.18,330.391"
               style="fill:#354ca6;fill-opacity:1;fill-rule:nonzero;stroke:none"
               id="path60"
               inkscape:connector-curvature="0" /><path
               d="m 1844.27,314.973 -1.86,4.636 c 15.28,6.114 438.54,249.27 442.8,251.723 l 2.5,-4.336 C 2270.24,556.965 1859.87,321.211 1844.27,314.973"
               style="fill:#354ca6;fill-opacity:1;fill-rule:nonzero;stroke:none"
               id="path62"
               inkscape:connector-curvature="0" /><path
               d="m 1856.35,299.555 -1.86,4.64 c 15.28,6.114 438.54,249.266 442.8,251.723 l 2.5,-4.336 C 2282.32,541.547 1871.95,305.797 1856.35,299.555"
               style="fill:#354ca6;fill-opacity:1;fill-rule:nonzero;stroke:none"
               id="path64"
               inkscape:connector-curvature="0" /><path
               d="m 1868.43,284.141 -1.86,4.636 c 15.28,6.118 438.54,249.27 442.8,251.727 l 2.5,-4.336 C 2294.4,526.133 1884.03,290.383 1868.43,284.141"
               style="fill:#354ca6;fill-opacity:1;fill-rule:nonzero;stroke:none"
               id="path66"
               inkscape:connector-curvature="0" /><path
               d="m 1880.52,268.723 -1.86,4.636 c 15.28,6.114 438.54,249.27 442.8,251.723 l 2.5,-4.336 C 2306.49,510.715 1896.12,274.961 1880.52,268.723"
               style="fill:#354ca6;fill-opacity:1;fill-rule:nonzero;stroke:none"
               id="path68"
               inkscape:connector-curvature="0" /><path
               d="m 1892.6,253.301 -1.86,4.648 c 15.28,6.114 438.54,249.262 442.8,251.719 l 2.5,-4.336 C 2318.57,495.297 1908.2,259.551 1892.6,253.301"
               style="fill:#354ca6;fill-opacity:1;fill-rule:nonzero;stroke:none"
               id="path70"
               inkscape:connector-curvature="0" /><path
               d="m 1904.68,237.883 -1.86,4.644 c 15.28,6.118 438.54,249.27 442.8,251.727 l 2.5,-4.336 C 2330.65,479.883 1920.28,244.133 1904.68,237.883"
               style="fill:#354ca6;fill-opacity:1;fill-rule:nonzero;stroke:none"
               id="path72"
               inkscape:connector-curvature="0" /><path
               d="m 1916.77,222.473 -1.86,4.644 c 15.28,6.113 438.54,249.262 442.8,251.715 l 2.5,-4.336 C 2342.74,464.465 1932.37,228.723 1916.77,222.473"
               style="fill:#354ca6;fill-opacity:1;fill-rule:nonzero;stroke:none"
               id="path74"
               inkscape:connector-curvature="0" /><path
               d="m 1928.85,207.051 -1.86,4.648 c 15.28,6.114 438.54,249.262 442.8,251.719 l 2.5,-4.336 C 2354.82,449.047 1944.45,213.301 1928.85,207.051"
               style="fill:#354ca6;fill-opacity:1;fill-rule:nonzero;stroke:none"
               id="path76"
               inkscape:connector-curvature="0" /><path
               d="m 1940.93,191.633 -1.86,4.644 c 15.28,6.118 438.54,249.27 442.8,251.727 l 2.5,-4.336 C 2366.9,433.633 1956.53,197.883 1940.93,191.633"
               style="fill:#354ca6;fill-opacity:1;fill-rule:nonzero;stroke:none"
               id="path78"
               inkscape:connector-curvature="0" /><path
               d="m 1953.02,176.223 -1.86,4.644 c 15.28,6.113 438.54,249.262 442.8,251.715 l 2.5,-4.336 C 2378.99,418.215 1968.62,182.473 1953.02,176.223"
               style="fill:#354ca6;fill-opacity:1;fill-rule:nonzero;stroke:none"
               id="path80"
               inkscape:connector-curvature="0" /><path
               d="m 1965.1,160.801 -1.86,4.648 c 15.28,6.114 438.54,249.262 442.8,251.719 l 2.5,-4.336 C 2391.07,402.797 1980.7,167.051 1965.1,160.801"
               style="fill:#354ca6;fill-opacity:1;fill-rule:nonzero;stroke:none"
               id="path82"
               inkscape:connector-curvature="0" /><path
               d="m 1977.18,145.383 -1.86,4.644 c 15.28,6.118 438.54,249.27 442.8,251.727 l 2.5,-4.336 C 2403.15,387.383 1992.78,151.633 1977.18,145.383"
               style="fill:#354ca6;fill-opacity:1;fill-rule:nonzero;stroke:none"
               id="path84"
               inkscape:connector-curvature="0" /></g></g></g><path
         d="M 2370,0 H 2210.62 V 388.75 H 2370 V 0"
         style="fill:#354ca6;fill-opacity:1;fill-rule:nonzero;stroke:none"
         id="path86"
         inkscape:connector-curvature="0" /><g
         id="g88"><g
           id="g90"
           clip-path="url(#clipPath94)"><g
             id="g96"
             clip-path="url(#clipPath100)"><path
               d="m 1993.43,392.055 -1.86,4.64 c 15.28,6.114 438.54,249.266 442.8,251.723 l 2.5,-4.336 C 2419.4,634.047 2009.03,398.297 1993.43,392.055"
               style="fill:#354ca6;fill-opacity:1;fill-rule:nonzero;stroke:none"
               id="path102"
               inkscape:connector-curvature="0" /><path
               d="m 2005.52,376.641 -1.86,4.636 c 15.28,6.118 438.54,249.27 442.8,251.727 l 2.5,-4.336 C 2431.49,618.633 2021.12,382.883 2005.52,376.641"
               style="fill:#354ca6;fill-opacity:1;fill-rule:nonzero;stroke:none"
               id="path104"
               inkscape:connector-curvature="0" /><path
               d="m 2017.6,361.223 -1.86,4.636 c 15.28,6.114 438.54,249.27 442.8,251.723 l 2.5,-4.336 C 2443.57,603.215 2033.2,367.461 2017.6,361.223"
               style="fill:#354ca6;fill-opacity:1;fill-rule:nonzero;stroke:none"
               id="path106"
               inkscape:connector-curvature="0" /><path
               d="m 2029.68,345.805 -1.86,4.64 c 15.28,6.114 438.54,249.266 442.8,251.723 l 2.5,-4.336 C 2455.65,587.797 2045.28,352.047 2029.68,345.805"
               style="fill:#354ca6;fill-opacity:1;fill-rule:nonzero;stroke:none"
               id="path108"
               inkscape:connector-curvature="0" /><path
               d="m 2041.77,330.391 -1.86,4.636 c 15.28,6.118 438.54,249.27 442.8,251.727 l 2.5,-4.336 C 2467.74,572.383 2057.37,336.633 2041.77,330.391"
               style="fill:#354ca6;fill-opacity:1;fill-rule:nonzero;stroke:none"
               id="path110"
               inkscape:connector-curvature="0" /><path
               d="m 2053.85,314.973 -1.86,4.636 c 15.28,6.114 438.54,249.27 442.8,251.723 l 2.5,-4.336 C 2479.82,556.965 2069.45,321.211 2053.85,314.973"
               style="fill:#354ca6;fill-opacity:1;fill-rule:nonzero;stroke:none"
               id="path112"
               inkscape:connector-curvature="0" /><path
               d="m 2065.93,299.555 -1.86,4.64 c 15.28,6.114 438.54,249.266 442.8,251.723 l 2.5,-4.336 C 2491.9,541.547 2081.53,305.797 2065.93,299.555"
               style="fill:#354ca6;fill-opacity:1;fill-rule:nonzero;stroke:none"
               id="path114"
               inkscape:connector-curvature="0" /><path
               d="m 2078.02,284.141 -1.86,4.636 c 15.28,6.118 438.54,249.27 442.8,251.727 l 2.5,-4.336 C 2503.99,526.133 2093.62,290.383 2078.02,284.141"
               style="fill:#354ca6;fill-opacity:1;fill-rule:nonzero;stroke:none"
               id="path116"
               inkscape:connector-curvature="0" /><path
               d="m 2090.1,268.723 -1.86,4.636 c 15.28,6.114 438.54,249.27 442.8,251.723 l 2.5,-4.336 C 2516.07,510.715 2105.7,274.961 2090.1,268.723"
               style="fill:#354ca6;fill-opacity:1;fill-rule:nonzero;stroke:none"
               id="path118"
               inkscape:connector-curvature="0" /><path
               d="m 2102.18,253.301 -1.86,4.648 c 15.28,6.114 438.54,249.262 442.8,251.719 l 2.5,-4.336 C 2528.15,495.297 2117.78,259.551 2102.18,253.301"
               style="fill:#354ca6;fill-opacity:1;fill-rule:nonzero;stroke:none"
               id="path120"
               inkscape:connector-curvature="0" /><path
               d="m 2114.27,237.883 -1.86,4.644 c 15.28,6.118 438.54,249.27 442.8,251.727 l 2.5,-4.336 C 2540.24,479.883 2129.87,244.133 2114.27,237.883"
               style="fill:#354ca6;fill-opacity:1;fill-rule:nonzero;stroke:none"
               id="path122"
               inkscape:connector-curvature="0" /><path
               d="m 2126.35,222.473 -1.86,4.644 c 15.28,6.113 438.54,249.262 442.8,251.715 l 2.5,-4.336 C 2552.32,464.465 2141.95,228.723 2126.35,222.473"
               style="fill:#354ca6;fill-opacity:1;fill-rule:nonzero;stroke:none"
               id="path124"
               inkscape:connector-curvature="0" /><path
               d="m 2138.43,207.051 -1.86,4.648 c 15.28,6.114 438.54,249.262 442.8,251.719 l 2.5,-4.336 C 2564.4,449.047 2154.03,213.301 2138.43,207.051"
               style="fill:#354ca6;fill-opacity:1;fill-rule:nonzero;stroke:none"
               id="path126"
               inkscape:connector-curvature="0" /><path
               d="m 2150.52,191.633 -1.86,4.644 c 15.28,6.118 438.54,249.27 442.8,251.727 l 2.5,-4.336 C 2576.49,433.633 2166.12,197.883 2150.52,191.633"
               style="fill:#354ca6;fill-opacity:1;fill-rule:nonzero;stroke:none"
               id="path128"
               inkscape:connector-curvature="0" /><path
               d="m 2162.6,176.223 -1.86,4.644 c 15.28,6.113 438.54,249.262 442.8,251.715 l 2.5,-4.336 C 2588.57,418.215 2178.2,182.473 2162.6,176.223"
               style="fill:#354ca6;fill-opacity:1;fill-rule:nonzero;stroke:none"
               id="path130"
               inkscape:connector-curvature="0" /><path
               d="m 2174.68,160.801 -1.86,4.648 c 15.28,6.114 438.54,249.262 442.8,251.719 l 2.5,-4.336 C 2600.65,402.797 2190.28,167.051 2174.68,160.801"
               style="fill:#354ca6;fill-opacity:1;fill-rule:nonzero;stroke:none"
               id="path132"
               inkscape:connector-curvature="0" /><path
               d="m 2186.77,145.383 -1.86,4.644 c 15.28,6.118 438.54,249.27 442.8,251.727 l 2.5,-4.336 C 2612.74,387.383 2202.37,151.633 2186.77,145.383"
               style="fill:#354ca6;fill-opacity:1;fill-rule:nonzero;stroke:none"
               id="path134"
               inkscape:connector-curvature="0" /></g></g></g><path
         d="m 2789.17,0 h -159.38 v 324.586 h 159.38 V 0"
         style="fill:#354ca6;fill-opacity:1;fill-rule:nonzero;stroke:none"
         id="path136"
         inkscape:connector-curvature="0" /><g
         id="g138"><g
           id="g140"
           clip-path="url(#clipPath144)"><g
             id="g146"
             clip-path="url(#clipPath150)"><path
               d="m 2412.6,392.055 -1.86,4.64 c 15.28,6.114 438.54,249.266 442.8,251.723 l 2.5,-4.336 C 2838.57,634.047 2428.2,398.297 2412.6,392.055"
               style="fill:#354ca6;fill-opacity:1;fill-rule:nonzero;stroke:none"
               id="path152"
               inkscape:connector-curvature="0" /><path
               d="m 2424.68,376.641 -1.86,4.636 c 15.28,6.118 438.54,249.27 442.8,251.727 l 2.5,-4.336 C 2850.65,618.633 2440.28,382.883 2424.68,376.641"
               style="fill:#354ca6;fill-opacity:1;fill-rule:nonzero;stroke:none"
               id="path154"
               inkscape:connector-curvature="0" /><path
               d="m 2436.77,361.223 -1.86,4.636 c 15.28,6.114 438.54,249.27 442.8,251.723 l 2.5,-4.336 C 2862.74,603.215 2452.37,367.461 2436.77,361.223"
               style="fill:#354ca6;fill-opacity:1;fill-rule:nonzero;stroke:none"
               id="path156"
               inkscape:connector-curvature="0" /><path
               d="m 2448.85,345.805 -1.86,4.64 c 15.28,6.114 438.54,249.266 442.8,251.723 l 2.5,-4.336 C 2874.82,587.797 2464.45,352.047 2448.85,345.805"
               style="fill:#354ca6;fill-opacity:1;fill-rule:nonzero;stroke:none"
               id="path158"
               inkscape:connector-curvature="0" /><path
               d="m 2460.93,330.391 -1.86,4.636 c 15.28,6.118 438.54,249.27 442.8,251.727 l 2.5,-4.336 C 2886.9,572.383 2476.53,336.633 2460.93,330.391"
               style="fill:#354ca6;fill-opacity:1;fill-rule:nonzero;stroke:none"
               id="path160"
               inkscape:connector-curvature="0" /><path
               d="m 2473.02,314.973 -1.86,4.636 c 15.28,6.114 438.54,249.27 442.8,251.723 l 2.5,-4.336 C 2898.99,556.965 2488.62,321.211 2473.02,314.973"
               style="fill:#354ca6;fill-opacity:1;fill-rule:nonzero;stroke:none"
               id="path162"
               inkscape:connector-curvature="0" /><path
               d="m 2485.1,299.555 -1.86,4.64 c 15.28,6.114 438.54,249.266 442.8,251.723 l 2.5,-4.336 C 2911.07,541.547 2500.7,305.797 2485.1,299.555"
               style="fill:#354ca6;fill-opacity:1;fill-rule:nonzero;stroke:none"
               id="path164"
               inkscape:connector-curvature="0" /><path
               d="m 2497.18,284.141 -1.86,4.636 c 15.28,6.118 438.54,249.27 442.8,251.727 l 2.5,-4.336 C 2923.15,526.133 2512.78,290.383 2497.18,284.141"
               style="fill:#354ca6;fill-opacity:1;fill-rule:nonzero;stroke:none"
               id="path166"
               inkscape:connector-curvature="0" /><path
               d="m 2509.27,268.723 -1.86,4.636 c 15.28,6.114 438.54,249.27 442.8,251.723 l 2.5,-4.336 C 2935.24,510.715 2524.87,274.961 2509.27,268.723"
               style="fill:#354ca6;fill-opacity:1;fill-rule:nonzero;stroke:none"
               id="path168"
               inkscape:connector-curvature="0" /><path
               d="m 2521.35,253.301 -1.86,4.648 c 15.28,6.114 438.54,249.262 442.8,251.719 l 2.5,-4.336 C 2947.32,495.297 2536.95,259.551 2521.35,253.301"
               style="fill:#354ca6;fill-opacity:1;fill-rule:nonzero;stroke:none"
               id="path170"
               inkscape:connector-curvature="0" /><path
               d="m 2533.43,237.883 -1.86,4.644 c 15.28,6.118 438.54,249.27 442.8,251.727 l 2.5,-4.336 C 2959.4,479.883 2549.03,244.133 2533.43,237.883"
               style="fill:#354ca6;fill-opacity:1;fill-rule:nonzero;stroke:none"
               id="path172"
               inkscape:connector-curvature="0" /><path
               d="m 2545.52,222.473 -1.86,4.644 c 15.28,6.113 438.54,249.262 442.8,251.715 l 2.5,-4.336 C 2971.49,464.465 2561.12,228.723 2545.52,222.473"
               style="fill:#354ca6;fill-opacity:1;fill-rule:nonzero;stroke:none"
               id="path174"
               inkscape:connector-curvature="0" /><path
               d="m 2557.6,207.051 -1.86,4.648 c 15.28,6.114 438.54,249.262 442.8,251.719 l 2.5,-4.336 C 2983.57,449.047 2573.2,213.301 2557.6,207.051"
               style="fill:#354ca6;fill-opacity:1;fill-rule:nonzero;stroke:none"
               id="path176"
               inkscape:connector-curvature="0" /><path
               d="m 2569.68,191.633 -1.86,4.644 c 15.28,6.118 438.54,249.27 442.8,251.727 l 2.5,-4.336 C 2995.65,433.633 2585.28,197.883 2569.68,191.633"
               style="fill:#354ca6;fill-opacity:1;fill-rule:nonzero;stroke:none"
               id="path178"
               inkscape:connector-curvature="0" /><path
               d="m 2581.77,176.223 -1.86,4.644 c 15.28,6.113 438.54,249.262 442.8,251.715 l 2.5,-4.336 C 3007.74,418.215 2597.37,182.473 2581.77,176.223"
               style="fill:#354ca6;fill-opacity:1;fill-rule:nonzero;stroke:none"
               id="path180"
               inkscape:connector-curvature="0" /><path
               d="m 2593.85,160.801 -1.86,4.648 c 15.28,6.114 438.54,249.262 442.8,251.719 l 2.5,-4.336 C 3019.82,402.797 2609.45,167.051 2593.85,160.801"
               style="fill:#354ca6;fill-opacity:1;fill-rule:nonzero;stroke:none"
               id="path182"
               inkscape:connector-curvature="0" /><path
               d="m 2605.93,145.383 -1.86,4.644 c 15.28,6.118 438.54,249.27 442.8,251.727 l 2.5,-4.336 C 3031.9,387.383 2621.53,151.633 2605.93,145.383"
               style="fill:#354ca6;fill-opacity:1;fill-rule:nonzero;stroke:none"
               id="path184"
               inkscape:connector-curvature="0" /></g></g></g><path
         d="M 2579.58,0 H 2420.2 v 120 h 159.38 V 0"
         style="fill:#354ca6;fill-opacity:1;fill-rule:nonzero;stroke:none"
         id="path186"
         inkscape:connector-curvature="0" /><g
         id="g188"><g
           id="g190"
           clip-path="url(#clipPath194)"><g
             id="g196"
             clip-path="url(#clipPath200)"><path
               d="m 2203.02,392.055 -1.86,4.64 c 15.28,6.114 438.54,249.266 442.8,251.723 l 2.5,-4.336 C 2628.99,634.047 2218.62,398.297 2203.02,392.055"
               style="fill:#354ca6;fill-opacity:1;fill-rule:nonzero;stroke:none"
               id="path202"
               inkscape:connector-curvature="0" /><path
               d="m 2215.1,376.641 -1.86,4.636 c 15.28,6.118 438.54,249.27 442.8,251.727 l 2.5,-4.336 C 2641.07,618.633 2230.7,382.883 2215.1,376.641"
               style="fill:#354ca6;fill-opacity:1;fill-rule:nonzero;stroke:none"
               id="path204"
               inkscape:connector-curvature="0" /><path
               d="m 2227.18,361.223 -1.86,4.636 c 15.28,6.114 438.54,249.27 442.8,251.723 l 2.5,-4.336 C 2653.15,603.215 2242.78,367.461 2227.18,361.223"
               style="fill:#354ca6;fill-opacity:1;fill-rule:nonzero;stroke:none"
               id="path206"
               inkscape:connector-curvature="0" /><path
               d="m 2239.27,345.805 -1.86,4.64 c 15.28,6.114 438.54,249.266 442.8,251.723 l 2.5,-4.336 C 2665.24,587.797 2254.87,352.047 2239.27,345.805"
               style="fill:#354ca6;fill-opacity:1;fill-rule:nonzero;stroke:none"
               id="path208"
               inkscape:connector-curvature="0" /><path
               d="m 2251.35,330.391 -1.86,4.636 c 15.28,6.118 438.54,249.27 442.8,251.727 l 2.5,-4.336 C 2677.32,572.383 2266.95,336.633 2251.35,330.391"
               style="fill:#354ca6;fill-opacity:1;fill-rule:nonzero;stroke:none"
               id="path210"
               inkscape:connector-curvature="0" /><path
               d="m 2263.43,314.973 -1.86,4.636 c 15.28,6.114 438.54,249.27 442.8,251.723 l 2.5,-4.336 C 2689.4,556.965 2279.03,321.211 2263.43,314.973"
               style="fill:#354ca6;fill-opacity:1;fill-rule:nonzero;stroke:none"
               id="path212"
               inkscape:connector-curvature="0" /><path
               d="m 2275.52,299.555 -1.86,4.64 c 15.28,6.114 438.54,249.266 442.8,251.723 l 2.5,-4.336 C 2701.49,541.547 2291.12,305.797 2275.52,299.555"
               style="fill:#354ca6;fill-opacity:1;fill-rule:nonzero;stroke:none"
               id="path214"
               inkscape:connector-curvature="0" /><path
               d="m 2287.6,284.141 -1.86,4.636 c 15.28,6.118 438.54,249.27 442.8,251.727 l 2.5,-4.336 C 2713.57,526.133 2303.2,290.383 2287.6,284.141"
               style="fill:#354ca6;fill-opacity:1;fill-rule:nonzero;stroke:none"
               id="path216"
               inkscape:connector-curvature="0" /><path
               d="m 2299.68,268.723 -1.86,4.636 c 15.28,6.114 438.54,249.27 442.8,251.723 l 2.5,-4.336 C 2725.65,510.715 2315.28,274.961 2299.68,268.723"
               style="fill:#354ca6;fill-opacity:1;fill-rule:nonzero;stroke:none"
               id="path218"
               inkscape:connector-curvature="0" /><path
               d="m 2311.77,253.301 -1.86,4.648 c 15.28,6.114 438.54,249.262 442.8,251.719 l 2.5,-4.336 C 2737.74,495.297 2327.37,259.551 2311.77,253.301"
               style="fill:#354ca6;fill-opacity:1;fill-rule:nonzero;stroke:none"
               id="path220"
               inkscape:connector-curvature="0" /><path
               d="m 2323.85,237.883 -1.86,4.644 c 15.28,6.118 438.54,249.27 442.8,251.727 l 2.5,-4.336 C 2749.82,479.883 2339.45,244.133 2323.85,237.883"
               style="fill:#354ca6;fill-opacity:1;fill-rule:nonzero;stroke:none"
               id="path222"
               inkscape:connector-curvature="0" /><path
               d="m 2335.93,222.473 -1.86,4.644 c 15.28,6.113 438.54,249.262 442.8,251.715 l 2.5,-4.336 C 2761.9,464.465 2351.53,228.723 2335.93,222.473"
               style="fill:#354ca6;fill-opacity:1;fill-rule:nonzero;stroke:none"
               id="path224"
               inkscape:connector-curvature="0" /><path
               d="m 2348.02,207.051 -1.86,4.648 c 15.28,6.114 438.54,249.262 442.8,251.719 l 2.5,-4.336 C 2773.99,449.047 2363.62,213.301 2348.02,207.051"
               style="fill:#354ca6;fill-opacity:1;fill-rule:nonzero;stroke:none"
               id="path226"
               inkscape:connector-curvature="0" /><path
               d="m 2360.1,191.633 -1.86,4.644 c 15.28,6.118 438.54,249.27 442.8,251.727 l 2.5,-4.336 C 2786.07,433.633 2375.7,197.883 2360.1,191.633"
               style="fill:#354ca6;fill-opacity:1;fill-rule:nonzero;stroke:none"
               id="path228"
               inkscape:connector-curvature="0" /><path
               d="m 2372.18,176.223 -1.86,4.644 c 15.28,6.113 438.54,249.262 442.8,251.715 l 2.5,-4.336 C 2798.15,418.215 2387.78,182.473 2372.18,176.223"
               style="fill:#354ca6;fill-opacity:1;fill-rule:nonzero;stroke:none"
               id="path230"
               inkscape:connector-curvature="0" /><path
               d="m 2384.27,160.801 -1.86,4.648 c 15.28,6.114 438.54,249.262 442.8,251.719 l 2.5,-4.336 C 2810.24,402.797 2399.87,167.051 2384.27,160.801"
               style="fill:#354ca6;fill-opacity:1;fill-rule:nonzero;stroke:none"
               id="path232"
               inkscape:connector-curvature="0" /><path
               d="m 2396.35,145.383 -1.86,4.644 c 15.28,6.118 438.54,249.27 442.8,251.727 l 2.5,-4.336 C 2822.32,387.383 2411.95,151.633 2396.35,145.383"
               style="fill:#354ca6;fill-opacity:1;fill-rule:nonzero;stroke:none"
               id="path234"
               inkscape:connector-curvature="0" /><path
               d="m 2348.43,96.2227 -1.86,4.6443 c 15.28,6.113 438.54,249.262 442.8,251.715 l 2.5,-4.336 C 2774.4,338.215 2364.03,102.473 2348.43,96.2227"
               style="fill:#354ca6;fill-opacity:1;fill-rule:nonzero;stroke:none"
               id="path236"
               inkscape:connector-curvature="0" /><path
               d="m 2360.52,80.8008 -1.86,4.6484 c 15.28,6.1133 438.54,249.2618 442.8,251.7188 l 2.5,-4.336 C 2786.49,322.797 2376.12,87.0508 2360.52,80.8008"
               style="fill:#354ca6;fill-opacity:1;fill-rule:nonzero;stroke:none"
               id="path238"
               inkscape:connector-curvature="0" /><path
               d="m 2372.6,65.3828 -1.86,4.6445 c 15.28,6.1172 438.54,249.2697 442.8,251.7267 l 2.5,-4.336 C 2798.57,307.383 2388.2,71.6328 2372.6,65.3828"
               style="fill:#354ca6;fill-opacity:1;fill-rule:nonzero;stroke:none"
               id="path240"
               inkscape:connector-curvature="0" /><path
               d="m 2384.68,49.9727 -1.86,4.6445 c 15.28,6.1133 438.54,249.2618 442.8,251.7148 l 2.5,-4.336 C 2810.65,291.965 2400.28,56.2227 2384.68,49.9727"
               style="fill:#354ca6;fill-opacity:1;fill-rule:nonzero;stroke:none"
               id="path242"
               inkscape:connector-curvature="0" /><path
               d="m 2396.77,34.5508 -1.86,4.6484 c 15.28,6.1133 438.54,249.2618 442.8,251.7188 l 2.5,-4.336 C 2822.74,276.547 2412.37,40.8008 2396.77,34.5508"
               style="fill:#354ca6;fill-opacity:1;fill-rule:nonzero;stroke:none"
               id="path244"
               inkscape:connector-curvature="0" /><path
               d="m 2408.85,19.1328 -1.86,4.6445 c 15.28,6.1172 438.54,249.2697 442.8,251.7267 l 2.5,-4.336 C 2834.82,261.133 2424.45,25.3828 2408.85,19.1328"
               style="fill:#354ca6;fill-opacity:1;fill-rule:nonzero;stroke:none"
               id="path246"
               inkscape:connector-curvature="0" /></g></g></g><path
         d="m 2998.75,0 h -159.38 v 188.75 h 159.38 V 0"
         style="fill:#354ca6;fill-opacity:1;fill-rule:nonzero;stroke:none"
         id="path248"
         inkscape:connector-curvature="0" /><g
         id="g250"><g
           id="g252"
           clip-path="url(#clipPath256)"><g
             id="g258"
             clip-path="url(#clipPath262)"><path
               d="m 2622.18,392.055 -1.86,4.64 c 15.28,6.114 438.54,249.266 442.8,251.723 l 2.5,-4.336 C 3048.15,634.047 2637.78,398.297 2622.18,392.055"
               style="fill:#354ca6;fill-opacity:1;fill-rule:nonzero;stroke:none"
               id="path264"
               inkscape:connector-curvature="0" /><path
               d="m 2634.27,376.641 -1.86,4.636 c 15.28,6.118 438.54,249.27 442.8,251.727 l 2.5,-4.336 C 3060.24,618.633 2649.87,382.883 2634.27,376.641"
               style="fill:#354ca6;fill-opacity:1;fill-rule:nonzero;stroke:none"
               id="path266"
               inkscape:connector-curvature="0" /><path
               d="m 2646.35,361.223 -1.86,4.636 c 15.28,6.114 438.54,249.27 442.8,251.723 l 2.5,-4.336 C 3072.32,603.215 2661.95,367.461 2646.35,361.223"
               style="fill:#354ca6;fill-opacity:1;fill-rule:nonzero;stroke:none"
               id="path268"
               inkscape:connector-curvature="0" /><path
               d="m 2658.43,345.805 -1.86,4.64 c 15.28,6.114 438.54,249.266 442.8,251.723 l 2.5,-4.336 C 3084.4,587.797 2674.03,352.047 2658.43,345.805"
               style="fill:#354ca6;fill-opacity:1;fill-rule:nonzero;stroke:none"
               id="path270"
               inkscape:connector-curvature="0" /><path
               d="m 2670.52,330.391 -1.86,4.636 c 15.28,6.118 438.54,249.27 442.8,251.727 l 2.5,-4.336 C 3096.49,572.383 2686.12,336.633 2670.52,330.391"
               style="fill:#354ca6;fill-opacity:1;fill-rule:nonzero;stroke:none"
               id="path272"
               inkscape:connector-curvature="0" /><path
               d="m 2682.6,314.973 -1.86,4.636 c 15.28,6.114 438.54,249.27 442.8,251.723 l 2.5,-4.336 C 3108.57,556.965 2698.2,321.211 2682.6,314.973"
               style="fill:#354ca6;fill-opacity:1;fill-rule:nonzero;stroke:none"
               id="path274"
               inkscape:connector-curvature="0" /><path
               d="m 2694.68,299.555 -1.86,4.64 c 15.28,6.114 438.54,249.266 442.8,251.723 l 2.5,-4.336 C 3120.65,541.547 2710.28,305.797 2694.68,299.555"
               style="fill:#354ca6;fill-opacity:1;fill-rule:nonzero;stroke:none"
               id="path276"
               inkscape:connector-curvature="0" /><path
               d="m 2706.77,284.141 -1.86,4.636 c 15.28,6.118 438.54,249.27 442.8,251.727 l 2.5,-4.336 C 3132.74,526.133 2722.37,290.383 2706.77,284.141"
               style="fill:#354ca6;fill-opacity:1;fill-rule:nonzero;stroke:none"
               id="path278"
               inkscape:connector-curvature="0" /><path
               d="m 2718.85,268.723 -1.86,4.636 c 15.28,6.114 438.54,249.27 442.8,251.723 l 2.5,-4.336 C 3144.82,510.715 2734.45,274.961 2718.85,268.723"
               style="fill:#354ca6;fill-opacity:1;fill-rule:nonzero;stroke:none"
               id="path280"
               inkscape:connector-curvature="0" /><path
               d="m 2730.93,253.301 -1.86,4.648 c 15.28,6.114 438.54,249.262 442.8,251.719 l 2.5,-4.336 C 3156.9,495.297 2746.53,259.551 2730.93,253.301"
               style="fill:#354ca6;fill-opacity:1;fill-rule:nonzero;stroke:none"
               id="path282"
               inkscape:connector-curvature="0" /><path
               d="m 2743.02,237.883 -1.86,4.644 c 15.28,6.118 438.54,249.27 442.8,251.727 l 2.5,-4.336 C 3168.99,479.883 2758.62,244.133 2743.02,237.883"
               style="fill:#354ca6;fill-opacity:1;fill-rule:nonzero;stroke:none"
               id="path284"
               inkscape:connector-curvature="0" /><path
               d="m 2755.1,222.473 -1.86,4.644 c 15.28,6.113 438.54,249.262 442.8,251.715 l 2.5,-4.336 C 3181.07,464.465 2770.7,228.723 2755.1,222.473"
               style="fill:#354ca6;fill-opacity:1;fill-rule:nonzero;stroke:none"
               id="path286"
               inkscape:connector-curvature="0" /><path
               d="m 2767.18,207.051 -1.86,4.648 c 15.28,6.114 438.54,249.262 442.8,251.719 l 2.5,-4.336 C 3193.15,449.047 2782.78,213.301 2767.18,207.051"
               style="fill:#354ca6;fill-opacity:1;fill-rule:nonzero;stroke:none"
               id="path288"
               inkscape:connector-curvature="0" /><path
               d="m 2779.27,191.633 -1.86,4.644 c 15.28,6.118 438.54,249.27 442.8,251.727 l 2.5,-4.336 C 3205.24,433.633 2794.87,197.883 2779.27,191.633"
               style="fill:#354ca6;fill-opacity:1;fill-rule:nonzero;stroke:none"
               id="path290"
               inkscape:connector-curvature="0" /><path
               d="m 2791.35,176.223 -1.86,4.644 c 15.28,6.113 438.54,249.262 442.8,251.715 l 2.5,-4.336 C 3217.32,418.215 2806.95,182.473 2791.35,176.223"
               style="fill:#354ca6;fill-opacity:1;fill-rule:nonzero;stroke:none"
               id="path292"
               inkscape:connector-curvature="0" /><path
               d="m 2803.43,160.801 -1.86,4.648 c 15.28,6.114 438.54,249.262 442.8,251.719 l 2.5,-4.336 C 3229.4,402.797 2819.03,167.051 2803.43,160.801"
               style="fill:#354ca6;fill-opacity:1;fill-rule:nonzero;stroke:none"
               id="path294"
               inkscape:connector-curvature="0" /><path
               d="m 2815.52,145.383 -1.86,4.644 c 15.28,6.118 438.54,249.27 442.8,251.727 l 2.5,-4.336 C 3241.49,387.383 2831.12,151.633 2815.52,145.383"
               style="fill:#354ca6;fill-opacity:1;fill-rule:nonzero;stroke:none"
               id="path296"
               inkscape:connector-curvature="0" /><path
               d="m 2767.6,96.2227 -1.86,4.6443 c 15.28,6.113 438.54,249.262 442.8,251.715 l 2.5,-4.336 C 3193.57,338.215 2783.2,102.473 2767.6,96.2227"
               style="fill:#354ca6;fill-opacity:1;fill-rule:nonzero;stroke:none"
               id="path298"
               inkscape:connector-curvature="0" /><path
               d="m 2779.68,80.8008 -1.86,4.6484 c 15.28,6.1133 438.54,249.2618 442.8,251.7188 l 2.5,-4.336 C 3205.65,322.797 2795.28,87.0508 2779.68,80.8008"
               style="fill:#354ca6;fill-opacity:1;fill-rule:nonzero;stroke:none"
               id="path300"
               inkscape:connector-curvature="0" /><path
               d="m 2791.77,65.3828 -1.86,4.6445 c 15.28,6.1172 438.54,249.2697 442.8,251.7267 l 2.5,-4.336 C 3217.74,307.383 2807.37,71.6328 2791.77,65.3828"
               style="fill:#354ca6;fill-opacity:1;fill-rule:nonzero;stroke:none"
               id="path302"
               inkscape:connector-curvature="0" /><path
               d="m 2803.85,49.9727 -1.86,4.6445 c 15.28,6.1133 438.54,249.2618 442.8,251.7148 l 2.5,-4.336 C 3229.82,291.965 2819.45,56.2227 2803.85,49.9727"
               style="fill:#354ca6;fill-opacity:1;fill-rule:nonzero;stroke:none"
               id="path304"
               inkscape:connector-curvature="0" /><path
               d="m 2815.93,34.5508 -1.86,4.6484 c 15.28,6.1133 438.54,249.2618 442.8,251.7188 l 2.5,-4.336 C 3241.9,276.547 2831.53,40.8008 2815.93,34.5508"
               style="fill:#354ca6;fill-opacity:1;fill-rule:nonzero;stroke:none"
               id="path306"
               inkscape:connector-curvature="0" /><path
               d="m 2828.02,19.1328 -1.86,4.6445 c 15.28,6.1172 438.54,249.2697 442.8,251.7267 l 2.5,-4.336 C 3253.99,261.133 2843.62,25.3828 2828.02,19.1328"
               style="fill:#354ca6;fill-opacity:1;fill-rule:nonzero;stroke:none"
               id="path308"
               inkscape:connector-curvature="0" /></g></g></g><path
         d="m 1532.5,82.9219 c -2.76,0 -5,2.2344 -5,5 V 387.914 c 0,2.035 1.23,3.867 3.11,4.637 1.91,0.75 4.06,0.308 5.47,-1.149 l 229.17,-235.836 c 1.93,-1.98 1.89,-5.144 -0.09,-7.07 -1.99,-1.933 -5.15,-1.887 -7.07,0.098 L 1537.5,375.598 V 87.9219 c 0,-2.7656 -2.24,-5 -5,-5"
         style="fill:#354ca6;fill-opacity:1;fill-rule:nonzero;stroke:none"
         id="path310"
         inkscape:connector-curvature="0" /><path
         d="m 1602.5,85.4219 h -35.83 c -2.76,0 -5,2.2344 -5,5 V 302.914 c 0,2.024 1.22,3.848 3.09,4.621 1.86,0.781 4.01,0.348 5.44,-1.086 L 1777.91,98.75 h 11.26 v 309.164 h -57.5 V 284.586 c 0,-2.766 -2.24,-5 -5,-5 -2.76,0 -5,2.234 -5,5 v 128.328 c 0,2.766 2.24,5 5,5 h 67.5 c 2.76,0 5,-2.234 5,-5 V 93.75 c 0,-2.7656 -2.24,-5 -5,-5 h -18.33 c -1.33,0 -2.6,0.5273 -3.54,1.4648 L 1571.67,290.844 V 95.4219 h 25.83 V 228.75 c 0,2.766 2.24,5 5,5 2.76,0 5,-2.234 5,-5 V 90.4219 c 0,-2.7656 -2.24,-5 -5,-5"
         style="fill:#354ca6;fill-opacity:1;fill-rule:nonzero;stroke:none"
         id="path312"
         inkscape:connector-curvature="0" /><path
         d="m 1761.67,196.25 c -1.3,0 -2.57,0.508 -3.53,1.453 l -214.17,213.344 c -1.96,1.945 -1.96,5.109 -0.02,7.07 1.96,1.953 5.12,1.961 7.07,0.008 l 205.65,-204.836 v 167.125 c 0,2.766 2.24,5 5,5 2.76,0 5,-2.234 5,-5 V 201.25 c 0,-2.02 -1.22,-3.84 -3.09,-4.617 -0.61,-0.254 -1.27,-0.383 -1.91,-0.383"
         style="fill:#354ca6;fill-opacity:1;fill-rule:nonzero;stroke:none"
         id="path314"
         inkscape:connector-curvature="0" /></g></g></svg>